<?xml version="1.0" encoding="utf-8"?>
<!-- Generator: Adobe Illustrator 23.0.6, SVG Export Plug-In . SVG Version: 6.00 Build 0)  -->
<svg version="1.1" id="Layer_2" xmlns="http://www.w3.org/2000/svg" xmlns:xlink="http://www.w3.org/1999/xlink" x="0px" y="0px"
	 width="709.3px" height="471.3px" viewBox="0 0 709.3 471.3" style="enable-background:new 0 0 709.3 471.3;" xml:space="preserve"
	>
<style type="text/css">
	.st0{fill:#353434;}
	.st1{fill:#8E8E8E;}
	.st2{fill:#1D1D1B;}
	.st3{fill:#FFFFFF;}
	.st4{fill:#009FE3;}
	.st5{fill:#E30613;}
	.st6{fill:#009640;}
	.st7{fill:#FFE000;}
	.st8{fill:#E6CAF9;}
	.st9{fill:#A0E8F9;}
	.st10{fill:#F9B9B9;}
	.st11{fill:#A0C4F9;}
</style>
<g>
	<path d="M527.5,134.1v21.1h-21.1v-21.1H527.5 M530.2,131.5h-26.4v26.4h26.4V131.5L530.2,131.5z"/>
	<path d="M567.2,83.5l10.7,18.3h-21.5L567.2,83.5 M567.2,77.7l-15.9,27h31.8L567.2,77.7L567.2,77.7z"/>
	<path d="M617.4,131.9c7.2,0,13.1,5.9,13.1,13.1s-5.9,13.1-13.1,13.1c-7.2,0-13.1-5.9-13.1-13.1S610.2,131.9,617.4,131.9
		 M617.4,128.9c-8.9,0-16.1,7.2-16.1,16.1c0,8.9,7.2,16.1,16.1,16.1c8.9,0,16.1-7.2,16.1-16.1C633.6,136.1,626.3,128.9,617.4,128.9
		L617.4,128.9z"/>
	<polygon points="580.4,205.4 569.3,194.5 580.2,183.4 578,181.3 567.1,192.4 556,181.5 553.9,183.7 565,194.6 554.1,205.7 
		556.2,207.8 567.1,196.7 578.2,207.6 	"/>
	<path d="M680.8,244.3c-4-20.8-23.8-102.7-29.9-124.5c-6.1-21.8-15.7-39.6-22.7-49.8c-7-10.3-16.4-24.9-17.7-28.8
		c-2.8-2.4-48.3-12.2-97-2.7c-3.1,0.6-3.9,4.8-10.5,4.8c-10.6,0-26.8,0-32.2,0c0,0-3.3,0-3.7,3v103.6c0,10.6-8.6,19.2-19.2,19.2
		H262.2c-10.6,0-19.2-8.6-19.2-19.2V46.9c0,0,0,0,0,0c0-3.9-3.8-3.6-3.8-3.6c-5.4,0-21.7,0-32.2,0c-6.6,0-7.4-4.2-10.5-4.8
		c-48.6-9.5-94.1,0.3-97,2.7C98.2,45,88.8,59.7,81.8,69.9c-7,10.3-16.6,28-22.7,49.8c-6.1,21.8-25.9,103.7-29.9,124.5
		c-4,20.8-16.2,85.7-8,132.7c8.7,49.8,40.7,64.4,64.1,64.4c23.4,0,47.6-7.5,68.1-47.4c20.5-39.9,35.2-86.3,37.6-93.7
		c2.4-7.4,12.6-9.6,12.6-9.6s15.5,17,45,17c29.5,0,47.2-18.8,47.2-18.8s29.6,0,30.9,0c0.9,0.5,2.4,0.7,5,0.7s14.5,0,23.3,0
		c8.8,0,20.6,0,23.3,0c2.6,0,4.1-0.2,5-0.7c1.3,0,30.9,0,30.9,0s17.7,18.8,47.2,18.8c29.5,0,45-17,45-17s10.2,2.3,12.6,9.6
		s17.1,53.8,37.6,93.7c20.5,39.9,44.7,47.4,68.1,47.4c23.4,0,55.4-14.7,64.1-64.4C696.9,330,684.8,265.1,680.8,244.3z M204.7,70
		c0-6.5,5.3-11.9,11.9-11.9h0c6.5,0,11.9,5.3,11.9,11.9v17.3c0,6.5-5.3,11.9-11.9,11.9h0c-6.5,0-11.9-5.3-11.9-11.9V70z
		 M246.4,300.7c-34.3,0-62.3-27.9-62.3-62.3c0-10,2.4-19.8,6.9-28.5c-13.3,9.9-29.9,15.8-47.8,15.8c-44.3,0-80.2-35.9-80.2-80.2
		S99,65.4,143.3,65.4c44.3,0,80.2,35.9,80.2,80.2c0,14.9-4.1,28.9-11.2,40.8c10.1-6.7,21.9-10.2,34.1-10.2
		c34.3,0,62.3,27.9,62.3,62.3S280.8,300.7,246.4,300.7z M367.4,183.5c1.9,0,3.4,1.5,3.4,3.4c0,1.9-1.5,3.4-3.4,3.4
		c-1.9,0-3.4-1.5-3.4-3.4C364,185,365.5,183.5,367.4,183.5z M370.8,204.2c0,1.9-1.5,3.4-3.4,3.4c-1.9,0-3.4-1.5-3.4-3.4
		c0-1.9,1.5-3.4,3.4-3.4C369.3,200.8,370.8,202.3,370.8,204.2z M361.5,192.1c1.9,0,3.4,1.5,3.4,3.4c0,1.9-1.5,3.4-3.4,3.4
		c-1.9,0-3.4-1.5-3.4-3.4C358.1,193.7,359.6,192.1,361.5,192.1z M358.6,204.2c0,1.9-1.5,3.4-3.4,3.4c-1.9,0-3.4-1.5-3.4-3.4
		c0-1.9,1.5-3.4,3.4-3.4C357.1,200.8,358.6,202.3,358.6,204.2z M355.2,183.5c1.9,0,3.4,1.5,3.4,3.4c0,1.9-1.5,3.4-3.4,3.4
		c-1.9,0-3.4-1.5-3.4-3.4C351.8,185,353.3,183.5,355.2,183.5z M349.3,192.1c1.9,0,3.4,1.5,3.4,3.4c0,1.9-1.5,3.4-3.4,3.4
		c-1.9,0-3.4-1.5-3.4-3.4C345.9,193.7,347.4,192.1,349.3,192.1z M346.4,204.2c0,1.9-1.5,3.4-3.4,3.4c-1.9,0-3.4-1.5-3.4-3.4
		c0-1.9,1.5-3.4,3.4-3.4C344.9,200.8,346.4,202.3,346.4,204.2z M343,183.5c1.9,0,3.4,1.5,3.4,3.4c0,1.9-1.5,3.4-3.4,3.4
		c-1.9,0-3.4-1.5-3.4-3.4C339.6,185,341.2,183.5,343,183.5z M330.9,190.3c-1.9,0-3.4-1.5-3.4-3.4c0-1.9,1.5-3.4,3.4-3.4
		c1.9,0,3.4,1.5,3.4,3.4C334.3,188.8,332.8,190.3,330.9,190.3z M333.7,195.5c0-1.9,1.5-3.4,3.4-3.4c1.9,0,3.4,1.5,3.4,3.4
		c0,1.9-1.5,3.4-3.4,3.4C335.3,198.9,333.7,197.4,333.7,195.5z M355.4,261.4c-10.6,0-19.1-8.6-19.1-19.1c0-10.6,8.6-19.1,19.1-19.1
		s19.1,8.6,19.1,19.1C374.5,252.9,366,261.4,355.4,261.4z M373.7,198.9c-1.9,0-3.4-1.5-3.4-3.4c0-1.9,1.5-3.4,3.4-3.4
		c1.9,0,3.4,1.5,3.4,3.4C377.1,197.4,375.5,198.9,373.7,198.9z M379.6,190.3c-1.9,0-3.4-1.5-3.4-3.4c0-1.9,1.5-3.4,3.4-3.4
		c1.9,0,3.4,1.5,3.4,3.4C383,188.8,381.5,190.3,379.6,190.3z M481.6,70c0-6.5,5.3-11.9,11.9-11.9c6.5,0,11.9,5.3,11.9,11.9v17.3
		c0,6.5-5.3,11.9-11.9,11.9c-6.5,0-11.9-5.3-11.9-11.9V70z M566.8,225.7c-17.9,0-34.4-5.9-47.8-15.8c4.5,8.8,6.9,18.6,6.9,28.5
		c0,34.3-27.9,62.3-62.3,62.3s-62.3-27.9-62.3-62.3s27.9-62.3,62.3-62.3c12.3,0,24,3.5,34.1,10.2c-7.1-12-11.2-25.9-11.2-40.8
		c0-44.3,35.9-80.2,80.2-80.2c44.3,0,80.2,35.9,80.2,80.2S611,225.7,566.8,225.7z"/>
	<path d="M190.3,34.8V27c0,0-13.5-8.4-39.2-8.4c-25.7,0-44.1,12.7-44.1,12.7s0,2.1,0,5C121.4,33.1,154.5,29,190.3,34.8z"/>
	<path d="M246.4,177.9c-13.7,0-26.3,4.5-36.4,12.1c-4.3,6.5-9.6,12.3-15.6,17.3c-5.5,9.1-8.6,19.8-8.6,31.2
		c0,33.5,27.1,60.6,60.6,60.6S307,272,307,238.5S279.9,177.9,246.4,177.9z M246.4,280.7c-23.3,0-42.2-18.9-42.2-42.2
		s18.9-42.2,42.2-42.2s42.2,18.9,42.2,42.2S269.7,280.7,246.4,280.7z"/>
	<path d="M143.3,67c-43.3,0-78.5,35.2-78.5,78.5s35.2,78.5,78.5,78.5c18.3,0,36-6.4,50.1-18c5.9-4.9,11-10.6,15.3-16.9
		c8.6-12.9,13.2-28,13.2-43.5C221.8,102.3,186.6,67,143.3,67z M143.9,72.2l9.7,10.1h-19.3L143.9,72.2z M125.6,92.5
		c3.2-3.9,8.3-5.1,17.7-5.2v0c0.3,0,0.5,0,0.8,0c0.3,0,0.5,0,0.8,0v0c9.4,0.1,14.5,1.4,17.7,5.2c3.4,4.1,2.4,8.5,2.4,11.1
		c0,2.6-0.7,13.1-0.8,14.9c-0.1,1.8-0.1,3.5-2,5.7c-1.9,2.2-11.8,12-12.6,12.6c-0.7,0.6-3.4,2.8-5.3,2.9l0,0c0,0-0.1,0-0.1,0
		c0,0-0.1,0-0.1,0l0,0c-1.9-0.1-4.6-2.4-5.3-2.9c-0.8-0.6-10.7-10.4-12.6-12.6c-1.9-2.2-1.9-3.9-2-5.7c-0.1-1.8-0.8-12.3-0.8-14.9
		C123.3,100.9,122.2,96.5,125.6,92.5z M80.5,155.3l-10.1-9.7l10.1-9.7V155.3z M116.9,166.2c-1.8,0.1-12.3,0.8-14.9,0.8
		s-7,1-11.1-2.4c-3.9-3.2-5.1-8.3-5.2-17.7h0c0-0.3,0-0.5,0-0.8c0-0.3,0-0.5,0-0.8h0c0.1-9.4,1.4-14.5,5.2-17.7
		c4.1-3.4,8.5-2.4,11.1-2.4s13.1,0.7,14.9,0.8c1.8,0.1,3.5,0.1,5.7,2c2.2,1.9,12,11.8,12.6,12.6c0.6,0.7,2.8,3.4,2.9,5.3h0
		c0,0,0,0.1,0,0.1c0,0,0,0.1,0,0.1h0c-0.1,1.9-2.4,4.6-2.9,5.3c-0.6,0.8-10.4,10.7-12.6,12.6C120.3,166.1,118.6,166.1,116.9,166.2z
		 M143.9,219l-9.7-10.1h19.3L143.9,219z M162.4,199.4c-3.2,3.9-8.3,5.1-17.7,5.2v0c-0.3,0-0.5,0-0.8,0c-0.3,0-0.5,0-0.8,0v0
		c-9.4-0.1-14.5-1.4-17.7-5.2c-3.4-4.1-2.4-8.5-2.4-11.1s0.7-13.1,0.8-14.9c0.1-1.8,0.1-3.5,2-5.7c1.9-2.2,11.8-12,12.6-12.6
		c0.7-0.6,3.4-2.8,5.3-2.9l0,0c0,0,0.1,0,0.1,0c0,0,0.1,0,0.1,0l0,0c1.9,0.1,4.6,2.4,5.3,2.9c0.8,0.6,10.7,10.4,12.6,12.6
		c1.9,2.2,1.9,3.9,2,5.7c0.1,1.8,0.8,12.3,0.8,14.9S165.8,195.3,162.4,199.4z M202.5,146.9L202.5,146.9c-0.1,9.4-1.4,14.5-5.2,17.7
		c-4.1,3.4-8.5,2.4-11.1,2.4c-2.6,0-13.1-0.7-14.9-0.8c-1.8-0.1-3.5-0.1-5.7-2c-2.2-1.9-12-11.8-12.6-12.6c-0.6-0.7-2.8-3.4-2.9-5.3
		h0c0,0,0-0.1,0-0.1c0,0,0-0.1,0-0.1h0c0.1-1.9,2.4-4.6,2.9-5.3c0.6-0.8,10.4-10.7,12.6-12.6c2.2-1.9,3.9-1.9,5.7-2
		c1.8-0.1,12.3-0.8,14.9-0.8c2.6,0,7-1,11.1,2.4c3.9,3.2,5.1,8.3,5.2,17.7h0c0,0.3,0,0.5,0,0.8C202.5,146.4,202.5,146.6,202.5,146.9
		z M207.2,155.3v-19.3l10.1,9.7L207.2,155.3z"/>
	<path d="M515.6,207.3c-6-5-11.3-10.8-15.6-17.3c-10.1-7.6-22.7-12.1-36.4-12.1c-33.5,0-60.6,27.1-60.6,60.6s27.1,60.6,60.6,60.6
		s60.6-27.1,60.6-60.6C524.2,227.1,521.1,216.4,515.6,207.3z M463.6,280.7c-23.3,0-42.2-18.9-42.2-42.2s18.9-42.2,42.2-42.2
		c23.3,0,42.2,18.9,42.2,42.2S486.9,280.7,463.6,280.7z"/>
	<circle cx="355.4" cy="242.3" r="17.3"/>
	<path d="M566.8,67c-43.3,0-78.5,35.2-78.5,78.5c0,15.6,4.6,30.6,13.2,43.5c4.2,6.4,9.4,12.1,15.3,16.9c14,11.6,31.8,18,50.1,18
		c43.3,0,78.5-35.2,78.5-78.5S610,67,566.8,67z M517.3,169.3c-13.3,0-24.1-10.8-24.1-24.1c0-13.3,10.8-24.1,24.1-24.1
		c13.3,0,24.1,10.8,24.1,24.1C541.4,158.5,530.6,169.3,517.3,169.3z M567.1,219.8c-13.3,0-24.1-10.8-24.1-24.1
		c0-13.3,10.8-24.1,24.1-24.1c13.3,0,24.1,10.8,24.1,24.1C591.2,209,580.4,219.8,567.1,219.8z M567.1,119.6
		c-13.3,0-24.1-10.8-24.1-24.1c0-13.3,10.8-24.1,24.1-24.1c13.3,0,24.1,10.8,24.1,24.1C591.2,108.8,580.4,119.6,567.1,119.6z
		 M617.1,169.3c-13.3,0-24.1-10.8-24.1-24.1c0-13.3,10.8-24.1,24.1-24.1s24.1,10.8,24.1,24.1C641.2,158.5,630.4,169.3,617.1,169.3z"
		/>
	<path d="M603.1,36.3c0-2.9,0-5,0-5s-18.4-12.7-44.1-12.7c-25.7,0-39.2,8.4-39.2,8.4v7.9C555.5,29,588.6,33.1,603.1,36.3z"/>
	<path d="M464.6,147.9V43c-1.2-1.1-2.7-1.8-4.3-1.8c-3,0-105.2-0.1-105.2-0.1s-102.2,0.1-105.2,0.1c-1.6,0-3.1,0.7-4.3,1.8v104.9
		c0,10.4,8.4,18.8,18.8,18.8h181.5C456.2,166.7,464.6,158.3,464.6,147.9z"/>
</g>
</svg>
