<?xml version="1.0" encoding="utf-8"?>
<!-- Generator: Adobe Illustrator 23.0.6, SVG Export Plug-In . SVG Version: 6.00 Build 0)  -->
<svg version="1.1" id="Layer_2" xmlns="http://www.w3.org/2000/svg" xmlns:xlink="http://www.w3.org/1999/xlink" x="0px" y="0px"
	 width="667.8px" height="471.3px" viewBox="0 0 667.8 471.3" style="enable-background:new 0 0 667.8 471.3;" xml:space="preserve"
	>
<style type="text/css">
	.st0{fill:#353434;}
	.st1{fill:#8E8E8E;}
	.st2{fill:#1D1D1B;}
	.st3{fill:#FFFFFF;}
	.st4{fill:#009FE3;}
	.st5{fill:#E30613;}
	.st6{fill:#009640;}
	.st7{fill:#FFE000;}
	.st8{fill:#E6CAF9;}
	.st9{fill:#A0E8F9;}
	.st10{fill:#F9B9B9;}
	.st11{fill:#A0C4F9;}
</style>
<g>
	<path d="M121,66c14.8-9.3,35-22,75.8-29.2c17.7-3.1,21.5-1.8,27.3,0.2c5.8,2,13.6,4.7,39.8,4.5c56.2-0.5,68.7-0.3,68.8-0.3
		c0.1,0,12.6-0.2,68.8,0.3c26.1,0.3,34-2.5,39.8-4.5c5.8-2,9.6-3.3,27.3-0.2c40.7,7.2,61,19.9,75.8,29.2c0.3,0.2,0.5,0.3,0.8,0.5
		c-1.4-2-2.1-5-5.9-13.7c-4.7-10.8-44-26-74.2-32.3c-18.4-3.8-25.8-1.2-29.7,1c-3.9,2.2-9.5,7.9-19.7,9.7c0,0-64.8-1.4-82.9-1.4
		c-18.1,0-82.9,1.4-82.9,1.4c-10.2-1.8-15.8-7.5-19.7-9.7c-3.9-2.2-11.3-4.8-29.7-1c-30.2,6.3-69.5,21.4-74.2,32.3
		c-3.8,8.7-4.5,11.7-5.9,13.7C120.5,66.4,120.7,66.2,121,66z"/>
	<circle cx="175.5" cy="133.5" r="37.6"/>
	<circle cx="414.2" cy="226.3" r="37.6"/>
	<path d="M289.9,218.8h-19.9c-2.2,0-4-1.8-4-4v-19.9c0-3.7-3-6.7-6.7-6.7h-17.3c-3.7,0-6.7,3-6.7,6.7v19.9c0,2.2-1.8,4-4,4h-19.9
		c-3.7,0-6.7,3-6.7,6.7v17.3c0,3.7,3,6.7,6.7,6.7h19.9c2.2,0,4,1.8,4,4v19.9c0,3.7,3,6.7,6.7,6.7h17.3c3.7,0,6.7-3,6.7-6.7v-19.9
		c0-2.2,1.8-4,4-4h19.9c3.7,0,6.7-3,6.7-6.7v-17.3C296.5,221.8,293.6,218.8,289.9,218.8z"/>
	<g>
		<rect x="286.5" y="133.8" width="6.5" height="4.2"/>
		<path d="M287.2,121.8c-6.5,0-11.8,5.3-11.8,11.8c0,6.5,5.3,11.8,11.8,11.8c6.5,0,11.8-5.3,11.8-11.8
			C299,127.1,293.8,121.8,287.2,121.8z M282.5,134.7H280v-7.4h9.8v2.5h-1.6v-0.9h-6.5v4.2h0.8V134.7z M294.7,139.5h-9.8v-7.4h9.8
			V139.5z"/>
	</g>
	<path d="M376.2,121.8c-6.5,0-11.8,5.3-11.8,11.8c0,6.5,5.3,11.8,11.8,11.8c6.5,0,11.8-5.3,11.8-11.8
		C388,127.1,382.7,121.8,376.2,121.8z M382.7,138.1h-12.9v-1.4h12.9V138.1z M382.7,134.1h-12.9v-1.4h12.9V134.1z M382.7,130h-12.9
		v-1.4h12.9V130z"/>
	<path d="M626.6,277.1c-8.6-41.3-24.5-89.6-33.9-115c-8.8-23.8-22.4-62.8-27.4-72.4l-1.3-1.1c-14.1-11.8-26.2-22.1-64.8-35.9
		c-37.3-13.4-52.1-7.7-63.8,5.7c-11.9,13.6-37.9,39.8-41.3,41.9c-0.3,0.2-0.5,0.3-0.7,0.5c-3,2.3-7.6,5.7-60.7,5.7
		s-57.7-3.4-60.7-5.7c-0.3-0.2-0.5-0.4-0.7-0.5c-3.3-2.1-29.4-28.4-41.3-41.9c-11.7-13.4-26.5-19-63.8-5.7
		c-38.7,13.8-50.8,24.1-64.8,35.9l-1.3,1.1c-5.1,9.6-18.7,48.7-27.4,72.4c-9.4,25.5-25.3,73.7-33.9,115
		c-8.6,41.3-11.8,76.4-5.4,105.3c10.3,46.3,52.2,58.9,58.8,58.9c7.3,0,28.7-19.1,46.5-43.3c17.8-24.1,48-63.3,65.5-70.8
		c17.4-7.5,76.5-4.5,128.7-4.5s111.3-3,128.7,4.5c17.4,7.5,47.7,46.7,65.5,70.8c17.8,24.1,39.2,43.3,46.5,43.3
		c6.5,0,48.4-12.6,58.8-58.9C638.4,353.5,635.2,318.4,626.6,277.1z M287.2,119.9c8,0,14.4,6.5,14.4,14.4s-6.5,14.4-14.4,14.4
		c-8,0-14.4-6.5-14.4-14.4S279.3,119.9,287.2,119.9z M175.5,176.9c-24,0-43.5-19.5-43.5-43.5S151.4,90,175.5,90s43.5,19.5,43.5,43.5
		S199.5,176.9,175.5,176.9z M251.5,286.3c-28.9,0-52.3-23.4-52.3-52.3s23.4-52.3,52.3-52.3s52.3,23.4,52.3,52.3
		S280.4,286.3,251.5,286.3z M489.7,72.8c12.1,0,21.8,9.8,21.8,21.8c0,12.1-9.8,21.8-21.8,21.8c-12.1,0-21.8-9.8-21.8-21.8
		C467.9,82.6,477.7,72.8,489.7,72.8z M361.8,134.4c0-8,6.5-14.4,14.4-14.4c8,0,14.5,6.5,14.5,14.4s-6.5,14.4-14.5,14.4
		C368.2,148.8,361.8,142.4,361.8,134.4z M414.2,269.8c-24,0-43.5-19.5-43.5-43.5s19.5-43.5,43.5-43.5s43.5,19.5,43.5,43.5
		S438.2,269.8,414.2,269.8z M447.6,157.3c-12.2,0-22.2-9.9-22.2-22.2s9.9-22.2,22.2-22.2c12.2,0,22.2,9.9,22.2,22.2
		S459.9,157.3,447.6,157.3z M489.7,198c-12.1,0-21.8-9.8-21.8-21.8s9.8-21.8,21.8-21.8c12.1,0,21.8,9.8,21.8,21.8
		S501.8,198,489.7,198z M531.2,158.9c-11.9,0-21.6-9.7-21.6-21.6s9.7-21.6,21.6-21.6s21.6,9.7,21.6,21.6S543.2,158.9,531.2,158.9z"
		/>
	<path d="M448.1,114.5c-11.1,0-20.2,9-20.2,20.2c0,11.1,9,20.2,20.2,20.2s20.2-9,20.2-20.2C468.2,123.5,459.2,114.5,448.1,114.5z
		 M452.4,147.6l-4.7-8.7l-4.7,8.7H438l7.2-13.3l-6.6-12.3h4.9l4.2,7.6l4.2-7.6h4.9l-6.6,12.2l7.2,13.3H452.4z"/>
	<g>
		<path d="M535.3,138.5c-0.6-0.2-1.8-0.3-3.6-0.3h-3.4v6.7h3.9c1.7,0,2.8-0.1,3.3-0.3c0.5-0.2,0.9-0.5,1.2-1c0.3-0.5,0.5-1.2,0.5-2
			c0-0.8-0.2-1.5-0.5-2C536.4,139.1,535.9,138.7,535.3,138.5z"/>
		<path d="M534.2,134c0.7-0.1,1.3-0.4,1.7-0.9c0.4-0.5,0.6-1.1,0.6-2c0-0.7-0.2-1.3-0.5-1.8s-0.7-0.8-1.2-0.9
			c-0.5-0.1-1.8-0.2-4-0.2h-2.4v5.8h2.7C532.8,134.1,533.8,134,534.2,134z"/>
		<path d="M531.7,117.2c-10.9,0-19.6,8.8-19.6,19.6c0,10.9,8.8,19.6,19.6,19.6c10.9,0,19.6-8.8,19.6-19.6
			C551.3,126,542.5,117.2,531.7,117.2z M540.2,146.6c-0.9,1.3-1.9,2-3.1,2.3c-0.8,0.2-2.8,0.3-5.8,0.3h-7v-25.2h8.3
			c2.3,0,3.8,0.2,4.8,0.6c0.9,0.4,1.7,1.1,2.3,2.2c0.6,1,0.9,2.2,0.9,3.5c0,1.2-0.3,2.3-0.8,3.3c-0.5,1-1.2,1.7-2.1,2.2
			c1.2,0.4,2.2,1.2,2.9,2.2c0.7,1.1,1,2.3,1,3.8C541.5,143.8,541.1,145.3,540.2,146.6z"/>
	</g>
	<g>
		<path d="M490.2,155.9c-11,0-19.9,8.9-19.9,19.9c0,11,8.9,19.9,19.9,19.9c11,0,19.9-8.9,19.9-19.9
			C510,164.8,501.1,155.9,490.2,155.9z M496.1,188.6l-2-6.2h-9l-1.8,6.2h-4.8l8.7-27.3h4.8l9,27.3H496.1z"/>
		<polygon points="486.6,177.8 492.7,177.8 489.6,167.7 		"/>
	</g>
	<path d="M490.2,74.4c-11,0-19.9,8.9-19.9,19.9c0,11,8.9,19.9,19.9,19.9c11,0,19.9-8.9,19.9-19.9C510,83.3,501.1,74.4,490.2,74.4z
		 M492.1,97v10.6h-4.2V97l-7.6-14.6h4.9l4.8,9.9l4.8-9.9h4.8L492.1,97z"/>
	<path d="M546.9,69.3l-0.4-0.3c-1-0.6-2-1.2-3-1.9c-14.7-9.2-34.8-21.9-75.3-29c-17.4-3.1-21.1-1.8-26.7,0.2
		c-5.8,2-13.8,4.8-40.2,4.5c-56.1-0.5-68.7-0.3-68.8-0.3c-0.1,0-12.7-0.2-68.8,0.3c-26.3,0.3-34.3-2.5-40.2-4.5
		c-5.6-1.9-9.3-3.2-26.7-0.2c-40.5,7.2-60.6,19.8-75.3,29c-1,0.7-2.1,1.3-3.1,1.9l-0.4,0.3c-2.8,2.1-6.1,4.6-14,15.1
		c14.7-12.1,28-21,61.4-32.9c15.1-5.4,26.5-7.7,35.6-7.7c13.9,0,22.2,5.4,29.5,13.7c11.5,13.1,37.8,39.7,41,41.7
		c0.3,0.2,0.5,0.4,0.8,0.6c2.7,2,7.3,5.4,60,5.4s57.3-3.4,60-5.4c0.3-0.2,0.5-0.4,0.8-0.6c3.2-2,29.5-28.5,41-41.7
		c6.9-7.8,13.9-11.9,23-13.2c10.7-1.6,24.1,0.7,42.2,7.2c33.4,11.9,46.7,20.8,61.4,32.9C553.1,73.9,549.7,71.4,546.9,69.3z
		 M332.6,87.1c-7.6,0-13.7-6.1-13.7-13.7s6.1-13.7,13.7-13.7c7.6,0,13.7,6.1,13.7,13.7S340.1,87.1,332.6,87.1z"/>
</g>
</svg>
